<?xml version="1.0" standalone="no"?>
<!DOCTYPE svg PUBLIC "-//W3C//DTD SVG 20010904//EN"
 "http://www.w3.org/TR/2001/REC-SVG-20010904/DTD/svg10.dtd">
<svg version="1.0" xmlns="http://www.w3.org/2000/svg"
 width="500.000000pt" height="500.000000pt" viewBox="0 0 500.000000 500.000000"
 preserveAspectRatio="xMidYMid meet">

<g transform="translate(0.000000,500.000000) scale(0.100000,-0.100000)"
fill="#000000" stroke="none">
<path d="M0 2500 l0 -2500 2500 0 2500 0 0 2500 0 2500 -2500 0 -2500 0 0
-2500z m2789 2459 c386 -47 706 -157 1011 -347 279 -174 483 -360 703 -642 7
-8 44 -65 84 -125 228 -351 369 -776 393 -1185 23 -391 -36 -726 -197 -1130
-47 -117 -103 -221 -115 -214 -7 4 -8 3 -4 -4 7 -12 -53 -122 -66 -122 -5 0
-8 -6 -8 -13 0 -8 -9 -22 -19 -31 -11 -10 -22 -28 -25 -42 -4 -13 -13 -24 -21
-24 -8 0 -14 -3 -14 -7 3 -21 -2 -26 -12 -13 -8 12 -9 11 -5 -5 5 -19 -2 -32
-55 -95 -20 -24 -20 -24 -16 -3 5 22 4 22 -18 5 -22 -17 -24 -47 -1 -36 6 3
-1 -6 -16 -20 -16 -14 -28 -29 -28 -33 -1 -34 -422 -408 -448 -398 -7 3 -11 1
-8 -4 3 -5 -27 -28 -67 -52 -39 -24 -74 -46 -77 -49 -3 -3 -27 -16 -55 -30
-27 -13 -52 -27 -55 -30 -13 -16 -123 -60 -133 -54 -7 4 -9 3 -4 -1 16 -19
-219 -106 -413 -154 -183 -45 -302 -61 -515 -68 -524 -16 -989 114 -1430 402
-588 383 -980 994 -1092 1700 -25 157 -25 575 0 730 28 172 46 238 70 257 14
11 17 18 8 18 -10 0 -12 9 -6 37 10 53 26 78 52 79 27 2 27 3 9 -38 -8 -18
-22 -69 -31 -113 -10 -44 -20 -84 -23 -89 -3 -6 -6 -19 -7 -30 -1 -12 -10 -77
-19 -146 -50 -377 -19 -734 96 -1090 34 -106 98 -261 136 -330 14 -25 41 -74
60 -110 214 -393 620 -777 1032 -976 250 -121 442 -180 750 -230 128 -22 468
-24 610 -5 136 18 351 65 455 100 49 16 92 28 96 25 4 -2 9 -1 11 4 1 4 37 20
78 36 41 16 108 46 148 68 41 22 76 37 79 35 2 -3 12 1 21 10 10 8 76 53 147
99 145 95 160 106 287 219 49 44 99 86 111 92 12 7 18 13 14 13 -7 0 128 158
158 185 6 6 19 23 29 38 10 16 23 26 31 24 9 -4 11 1 7 15 -3 12 1 26 9 32 8
6 30 36 49 66 19 30 37 57 40 60 17 16 161 307 199 402 68 173 125 406 152
622 18 146 7 487 -21 646 -25 142 -78 354 -100 400 -4 8 -22 53 -41 100 -128
333 -370 683 -623 902 -214 185 -353 279 -572 384 -225 109 -462 182 -714 221
-178 27 -555 24 -715 -6 -66 -12 -136 -25 -155 -27 -19 -3 -44 -9 -55 -14 -11
-4 -49 -16 -85 -25 -203 -53 -529 -204 -678 -314 -18 -13 -41 -25 -50 -26 -9
0 -19 -5 -22 -10 -8 -16 -67 -65 -78 -65 -5 0 -15 -6 -22 -14 -6 -8 -18 -12
-26 -9 -8 3 -14 0 -14 -6 0 -6 5 -11 11 -11 7 0 -13 -19 -42 -42 -30 -24 -62
-53 -73 -66 -10 -13 -24 -21 -31 -18 -19 7 -40 -20 -24 -29 7 -5 1 -14 -18
-26 -16 -10 -36 -30 -43 -44 -7 -14 -17 -25 -21 -25 -4 0 -22 -20 -40 -45 -17
-24 -36 -42 -40 -39 -5 3 -10 -3 -10 -13 -1 -17 -2 -17 -6 0 -5 20 -23 23 -24
5 0 -10 -2 -10 -6 -1 -2 7 9 27 26 45 18 20 31 27 31 19 0 -10 10 -5 30 14 36
34 33 43 -7 19 -23 -14 -21 -10 12 23 22 23 44 38 49 35 5 -3 7 2 3 10 -4 12
-1 14 13 11 10 -3 21 0 24 6 5 7 1 8 -10 4 -27 -10 -3 25 56 81 47 45 52 47
64 30 12 -16 14 -16 14 9 0 16 -5 24 -12 21 -6 -3 -3 1 7 10 11 8 25 12 33 9
9 -3 12 0 9 8 -5 14 72 75 138 111 18 9 28 17 23 18 -25 1 292 200 319 200 7
0 18 7 25 15 15 18 44 20 34 3 -4 -7 4 -1 19 15 14 15 31 27 37 27 6 0 30 9
52 20 23 11 49 20 58 20 9 0 20 4 26 9 5 5 60 25 121 45 172 54 384 92 613
109 72 6 308 -2 399 -14z m66 -138 c393 -58 736 -201 1065 -444 123 -91 377
-345 469 -470 246 -333 394 -702 446 -1107 24 -187 17 -545 -14 -706 -157
-830 -715 -1497 -1495 -1789 -285 -106 -572 -152 -891 -142 -353 11 -655 87
-969 243 -235 117 -405 241 -609 442 -190 187 -323 374 -447 627 -176 358
-249 696 -237 1108 7 275 48 487 142 739 272 725 894 1277 1642 1457 194 47
302 59 548 60 170 1 250 -3 350 -18z m-2255 -832 c0 -8 -29 -33 -31 -28 -1 2
-2 16 -3 30 -2 23 0 25 16 15 10 -6 18 -14 18 -17z m-45 1 c-3 -5 -1 -18 5
-29 6 -12 6 -22 1 -26 -17 -10 -34 34 -20 51 13 16 23 19 14 4z m-15 -66 c0
-9 -6 -14 -12 -11 -7 2 -21 0 -31 -5 -16 -8 -17 -7 -8 10 18 33 51 37 51 6z
m-37 -47 c13 12 7 -13 -8 -34 -10 -14 -22 -19 -35 -16 -16 4 -28 -8 -17 -20 1
-1 -8 -15 -20 -31 -14 -17 -23 -43 -23 -63 0 -19 -3 -32 -7 -30 -5 3 -16 -6
-26 -19 -15 -20 -15 -23 -2 -17 12 4 7 -9 -14 -44 -17 -28 -31 -55 -31 -60 0
-6 -10 -30 -23 -54 -13 -24 -36 -81 -53 -126 -21 -60 -33 -83 -46 -83 -23 0
-27 10 -16 40 7 20 11 22 19 10 7 -11 8 -8 4 10 -3 14 -1 39 5 55 9 23 13 26
21 15 6 -11 7 -6 4 15 -7 36 10 68 24 46 7 -11 11 -10 20 7 16 31 13 51 -4 28
-15 -20 -15 -20 -15 0 0 11 4 24 9 29 5 6 19 34 31 64 24 61 54 104 65 93 4
-4 5 0 3 8 -6 18 18 70 33 70 5 0 9 6 7 14 -5 23 63 107 77 96 7 -5 15 -7 18
-3z m-49 -95 c-33 -52 -44 -66 -44 -58 0 4 9 21 20 36 11 16 20 32 19 37 -3
17 1 24 12 18 6 -5 4 -16 -7 -33z"/>
<path d="M1050 4459 c0 -5 5 -7 10 -4 6 3 10 8 10 11 0 2 -4 4 -10 4 -5 0 -10
-5 -10 -11z"/>
<path d="M827 4293 c-10 -9 -9 -23 2 -23 5 0 11 7 15 15 5 15 -5 20 -17 8z"/>
<path d="M610 4060 c0 -5 5 -10 10 -10 6 0 10 5 10 10 0 6 -4 10 -10 10 -5 0
-10 -4 -10 -10z"/>
<path d="M130 3069 c0 -5 5 -7 10 -4 6 3 10 8 10 11 0 2 -4 4 -10 4 -5 0 -10
-5 -10 -11z"/>
<path d="M4610 1259 c0 -5 5 -7 10 -4 6 3 10 8 10 11 0 2 -4 4 -10 4 -5 0 -10
-5 -10 -11z"/>
<path d="M4145 680 c3 -5 8 -10 11 -10 2 0 4 5 4 10 0 6 -5 10 -11 10 -5 0 -7
-4 -4 -10z"/>
<path d="M4058 603 c7 -3 16 -2 19 1 4 3 -2 6 -13 5 -11 0 -14 -3 -6 -6z"/>
<path d="M3918 503 c7 -3 16 -2 19 1 4 3 -2 6 -13 5 -11 0 -14 -3 -6 -6z"/>
<path d="M3598 313 c7 -3 16 -2 19 1 4 3 -2 6 -13 5 -11 0 -14 -3 -6 -6z"/>
<path d="M2240 4685 c-311 -39 -623 -149 -891 -315 -349 -217 -635 -535 -820
-915 -288 -593 -289 -1301 -3 -1895 122 -253 262 -448 455 -635 183 -177 347
-292 579 -404 492 -237 1027 -282 1563 -131 133 37 232 76 381 151 211 106
358 212 540 389 138 134 213 225 308 370 224 344 340 707 355 1115 14 376 -55
706 -216 1040 -212 439 -555 788 -992 1010 -239 122 -490 196 -761 225 -128
13 -367 11 -498 -5z m1327 -1340 c101 -21 180 -51 258 -97 107 -64 286 -253
250 -265 -5 -2 -75 -41 -154 -86 l-144 -84 -61 62 c-70 71 -124 99 -227 121
-145 30 -313 -11 -415 -103 -38 -35 -94 -111 -94 -129 0 -11 132 -14 758 -14
416 0 790 0 830 0 l72 0 0 -250 0 -250 -851 0 c-962 0 -883 8 -755 -81 37 -27
105 -63 150 -80 75 -30 90 -32 201 -33 92 0 132 4 170 18 71 26 150 81 183
127 15 21 31 39 35 39 17 0 307 -173 307 -184 -1 -22 -101 -136 -163 -186
-137 -109 -303 -168 -497 -177 -127 -5 -230 13 -359 63 -149 59 -315 201 -481
412 l-64 82 -66 0 -65 -1 -30 -66 c-100 -225 -279 -375 -520 -439 -62 -17
-112 -19 -450 -19 l-380 0 -3 263 -2 262 -320 0 -320 0 0 250 0 250 303 1
c166 1 310 1 319 0 17 -2 18 18 18 288 l0 291 374 0 c361 0 377 -1 468 -24
140 -36 225 -82 359 -197 57 -49 185 -186 239 -255 86 -109 81 -105 118 -102
33 3 36 6 48 55 46 180 210 371 404 470 44 23 180 67 230 76 62 11 264 6 327
-8z"/>
<path d="M1372 2869 l3 -114 373 -3 c204 -1 372 1 371 5 -1 15 -118 108 -176
140 -120 67 -158 76 -376 81 l-198 4 3 -113z"/>
<path d="M370 2685 l0 -55 315 0 315 0 0 55 0 55 -315 0 -315 0 0 -55z"/>
<path d="M1370 2685 l0 -55 343 0 c189 0 346 3 350 6 3 3 -1 24 -9 46 -8 23
-12 44 -8 47 3 3 28 -18 55 -47 43 -46 53 -52 89 -52 47 0 46 4 -12 69 l-38
41 -385 0 -385 0 0 -55z"/>
<path d="M2537 2728 c72 -96 74 -98 115 -98 45 0 45 -1 -2 62 -32 44 -38 47
-79 48 -33 0 -41 -3 -34 -12z"/>
<path d="M2952 2701 c-24 -78 -106 -71 798 -71 l810 0 0 55 0 55 -798 0 -799
0 -11 -39z"/>
<path d="M4570 2685 c0 -42 3 -55 15 -55 12 0 15 13 15 55 0 42 -3 55 -15 55
-12 0 -15 -13 -15 -55z"/>
<path d="M370 2565 l0 -55 315 0 315 0 0 55 0 55 -315 0 -315 0 0 -55z"/>
<path d="M1370 2565 l0 -55 355 0 c397 0 362 -7 349 73 l-7 37 -348 0 -349 0
0 -55z"/>
<path d="M2167 2608 c73 -98 73 -98 119 -98 l44 0 -36 48 c-45 59 -50 62 -98
62 -29 0 -36 -3 -29 -12z"/>
<path d="M2626 2608 c4 -7 23 -32 42 -55 32 -39 38 -43 81 -43 25 0 42 4 36 8
-5 4 -27 28 -48 55 -34 42 -43 47 -78 47 -29 0 -38 -3 -33 -12z"/>
<path d="M2930 2565 l0 -55 816 0 815 0 -3 53 -3 52 -812 3 -813 2 0 -55z
m1590 25 c0 -13 -7 -20 -20 -20 -13 0 -20 7 -20 20 0 13 7 20 20 20 13 0 20
-7 20 -20z"/>
<path d="M4570 2565 c0 -42 3 -55 15 -55 12 0 15 13 15 55 0 42 -3 55 -15 55
-12 0 -15 -13 -15 -55z"/>
<path d="M370 2440 c0 -33 4 -50 13 -51 10 0 571 0 605 1 8 0 12 17 12 50 l0
50 -315 0 -315 0 0 -50z"/>
<path d="M1370 2440 l0 -50 323 -1 c321 -1 358 -1 366 7 2 2 7 24 11 49 l7 45
-354 0 -353 0 0 -50z"/>
<path d="M2292 2443 c28 -39 41 -49 74 -54 21 -4 40 -6 42 -4 5 5 -25 57 -47
83 -14 16 -30 22 -61 22 l-42 0 34 -47z"/>
<path d="M2720 2483 c1 -5 18 -28 40 -52 33 -38 45 -45 79 -47 51 -3 51 9 2
64 -34 36 -44 42 -80 42 -22 0 -41 -3 -41 -7z"/>
<path d="M2933 2445 c2 -26 7 -48 9 -50 2 -2 366 -5 809 -5 l804 -1 3 50 4 51
-818 0 -817 0 6 -45z m1587 -15 c0 -13 -7 -20 -20 -20 -13 0 -20 7 -20 20 0
13 7 20 20 20 13 0 20 -7 20 -20z"/>
<path d="M4570 2437 c0 -41 4 -54 15 -54 11 0 15 13 15 54 0 40 -4 53 -15 53
-11 0 -15 -13 -15 -53z"/>
<path d="M370 2315 l0 -55 315 0 315 0 0 55 0 55 -315 0 -315 0 0 -55z"/>
<path d="M1370 2315 l0 -55 317 2 317 3 23 40 c12 22 23 46 23 53 0 9 -75 12
-340 12 l-340 0 0 -55z"/>
<path d="M2350 2367 c0 -2 11 -18 25 -37 15 -20 23 -41 19 -52 -5 -16 1 -18
50 -18 31 0 56 3 56 8 0 4 -16 28 -35 55 -32 42 -39 47 -75 47 -22 0 -40 -1
-40 -3z"/>
<path d="M2850 2330 c60 -76 -16 -70 893 -70 l818 0 -3 53 -3 52 -803 3 -802
2 6 -27 7 -28 -30 28 c-22 21 -39 27 -72 27 l-43 0 32 -40z"/>
<path d="M4570 2315 c0 -42 3 -55 15 -55 12 0 15 13 15 55 0 42 -3 55 -15 55
-12 0 -15 -13 -15 -55z"/>
<path d="M1370 2164 l0 -85 198 3 c239 4 277 15 375 109 l62 58 -317 1 -318 0
0 -86z"/>
<path d="M470 3870 c0 -5 5 -10 11 -10 5 0 7 5 4 10 -3 6 -8 10 -11 10 -2 0
-4 -4 -4 -10z"/>
<path d="M221 3364 c0 -11 3 -14 6 -6 3 7 2 16 -1 19 -3 4 -6 -2 -5 -13z"/>
</g>
</svg>
